<?xml version="1.0" standalone="no"?>
<!DOCTYPE svg PUBLIC "-//W3C//DTD SVG 20010904//EN"
 "http://www.w3.org/TR/2001/REC-SVG-20010904/DTD/svg10.dtd">
<svg version="1.0" xmlns="http://www.w3.org/2000/svg"
 width="740.000000pt" height="740.000000pt" viewBox="0 0 740.000000 740.000000"
 preserveAspectRatio="xMidYMid meet">
<metadata>
Created by potrace 1.16, written by Peter Selinger 2001-2019
</metadata>
<g transform="translate(0.000000,740.000000) scale(0.100000,-0.100000)"
fill="#111dfa" stroke="none">
<path d="M4110 5384 c-39 -16 -51 -72 -30 -143 5 -19 8 -36 6 -38 -2 -2 -40
14 -86 36 -104 50 -179 67 -231 52 -42 -13 -79 -52 -79 -85 0 -28 35 -85 73
-119 31 -27 31 -28 7 -22 -14 4 -60 9 -102 12 -97 7 -128 -8 -128 -62 0 -42
46 -99 96 -117 19 -6 34 -15 34 -18 0 -3 -15 -11 -32 -18 -42 -15 -85 -51 -92
-78 -11 -35 22 -65 74 -68 44 -2 45 -3 52 -42 4 -21 5 -52 2 -69 -3 -16 -1
-40 3 -53 l9 -23 18 20 c14 16 21 46 27 116 4 52 10 99 13 104 3 4 61 11 128
14 134 7 235 27 285 57 32 19 33 19 33 1 0 -47 41 -110 101 -155 34 -25 38
-25 70 -12 19 8 60 17 92 21 54 7 61 11 88 48 16 22 34 57 39 78 20 73 -29
133 -91 114 -23 -8 -23 -2 -4 72 20 75 19 152 -1 181 -20 28 -77 30 -122 2
-18 -11 -34 -20 -37 -20 -2 0 -11 24 -19 53 -18 60 -49 111 -86 139 -27 20
-85 31 -110 22z"/>
<path d="M1712 5304 c-20 -14 -22 -24 -22 -100 l0 -84 806 0 806 0 -4 81 c-6
132 80 119 -807 119 -669 0 -759 -2 -779 -16z"/>
<path d="M5975 5226 c-27 -7 -70 -23 -95 -36 -274 -141 -296 -534 -38 -700
297 -192 676 49 627 398 -24 171 -158 310 -328 342 -67 13 -102 12 -166 -4z
m250 -55 c119 -55 194 -158 217 -296 26 -157 -66 -321 -221 -394 -49 -23 -69
-26 -156 -26 -90 0 -106 3 -160 29 -76 38 -143 105 -181 181 -26 55 -29 69
-29 165 0 96 2 110 28 158 102 194 314 271 502 183z"/>
<path d="M2196 4741 c4 -94 3 -161 -2 -161 -5 0 -72 27 -149 59 -92 39 -143
56 -150 50 -5 -6 -10 -54 -10 -107 0 -113 18 -161 86 -229 67 -68 118 -88 229
-88 80 0 102 4 140 24 62 32 117 86 148 146 37 72 42 189 10 264 -14 34 -31
57 -45 62 -17 6 -21 5 -16 -7 3 -7 9 -14 15 -14 5 0 6 -5 2 -12 -5 -7 -2 -9 9
-5 8 3 17 0 20 -6 3 -9 -5 -12 -30 -9 -32 4 -34 7 -31 36 2 23 8 31 22 29 14
-1 11 6 -15 34 -46 47 -120 84 -186 90 l-54 6 7 -162z"/>
<path d="M4380 4657 c-26 -10 -34 -17 -32 -32 2 -11 4 -56 5 -101 1 -98 -19
-145 -82 -189 -42 -30 -44 -30 -174 -30 -110 0 -136 -3 -157 -17 -30 -22 -124
-24 -160 -3 -14 8 -28 14 -32 15 -8 0 33 -124 56 -169 45 -86 140 -157 236
-177 95 -19 77 -36 -67 -65 -71 -15 -186 -48 -258 -75 -124 -46 -133 -51 -196
-114 -75 -76 -210 -274 -294 -432 -47 -89 -54 -109 -41 -114 12 -5 13 -10 6
-25 -9 -16 5 -28 110 -99 91 -61 120 -85 116 -98 -2 -9 -7 -37 -11 -62 -3 -25
-8 -56 -11 -70 l-4 -25 127 -3 c119 -2 129 -4 145 -25 10 -12 22 -27 28 -34 8
-10 48 -171 172 -698 12 -49 22 -110 22 -134 l1 -45 44 -3 c24 -2 80 -12 123
-24 l78 -21 93 22 c144 34 242 69 373 136 67 34 142 69 167 79 25 9 48 25 50
34 4 14 5 14 6 0 1 -11 20 -21 59 -31 31 -8 66 -18 77 -22 l20 -8 -20 17 c-11
10 -45 29 -75 43 -30 14 -58 29 -61 35 -5 7 -23 252 -32 434 -2 51 -20 45 221
69 109 11 177 13 182 8 6 -6 13 -85 17 -177 3 -92 10 -167 15 -167 4 0 8 -20
8 -45 0 -24 5 -56 12 -70 9 -19 8 -31 -2 -49 -7 -13 -9 -30 -5 -37 6 -9 3 -11
-8 -6 -10 3 -17 3 -17 -1 -1 -39 -32 -228 -44 -267 -9 -28 -31 -69 -51 -92
-30 -36 -33 -42 -18 -46 10 -3 -617 -5 -1394 -6 -1062 -1 -1414 2 -1419 10 -4
8 -3 9 4 5 19 -11 20 -19 -56 304 -17 69 -33 140 -37 159 -5 25 -10 30 -16 20
-6 -9 -7 -3 -3 16 8 42 -10 85 -36 85 -25 0 -25 2 6 -133 14 -62 41 -182 60
-267 19 -85 36 -165 39 -177 l5 -23 -480 0 c-318 0 -479 3 -475 10 4 7 -122
10 -369 10 -363 0 -377 1 -396 20 -27 27 -26 71 3 98 23 22 27 22 390 22 233
0 368 4 372 10 4 6 -8 10 -29 10 -20 0 -36 4 -36 9 0 6 -148 10 -367 11 -306
0 -371 3 -390 15 -47 31 -39 106 13 125 17 7 162 9 385 8 198 -2 359 0 359 5
0 11 -798 9 -820 -3 -23 -12 -48 -82 -32 -88 6 -2 9 -9 6 -16 -9 -23 45 -56
90 -56 38 -1 40 -2 21 -15 -41 -29 -55 -49 -55 -80 0 -36 32 -84 58 -87 9 -1
-19 -4 -63 -7 l-80 -6 0 -35 0 -35 3338 -3 3338 -2 -3 37 -3 38 -77 3 -78 3 0
261 0 261 -60 -7 c-33 -4 -65 -4 -71 0 -16 9 -99 11 -99 2 0 -4 -23 -8 -51 -8
-27 0 -48 4 -45 8 5 8 -85 5 -92 -3 -2 -2 -4 -118 -4 -259 l0 -256 -110 0
-111 0 7 98 c4 53 9 112 13 130 l5 32 -157 0 -157 0 5 -22 c3 -13 9 -68 12
-123 4 -55 13 -103 19 -107 6 -4 -139 -8 -321 -8 l-333 0 0 258 0 259 -25 13
c-29 15 -60 59 -49 68 4 4 9 1 11 -5 7 -20 21 -15 26 10 3 21 4 20 18 -8 13
-28 14 -23 17 85 1 63 1 327 0 585 -3 466 -3 471 -26 528 -14 34 -28 55 -34
51 -6 -4 -8 -2 -5 3 9 14 -37 79 -52 75 -7 -1 -10 2 -7 6 3 5 -3 17 -14 27
-11 10 -20 14 -20 9 0 -5 -6 1 -14 12 -8 11 -43 34 -78 49 -54 25 -79 29 -178
33 l-115 5 -45 37 c-25 20 -83 62 -129 93 l-84 56 -32 -42 c-37 -48 -124 -97
-172 -97 -79 0 -213 81 -213 128 0 15 12 27 44 41 122 54 240 163 286 264 41
91 43 117 25 290 -12 115 -13 162 -5 177 9 17 8 20 -12 19 -13 0 -39 -6 -58
-12z m-215 -404 c-17 -72 -73 -113 -154 -113 -49 0 -57 3 -92 39 -22 21 -39
43 -39 49 0 6 26 13 58 17 31 4 86 12 122 20 104 21 113 20 105 -12z m-105
-452 c24 -90 133 -198 255 -252 46 -20 56 -35 31 -45 -25 -10 -157 68 -218
127 -58 57 -108 143 -108 187 0 37 28 26 40 -17z m614 -620 c3 -4 21 -116 40
-247 32 -221 47 -416 33 -430 -8 -9 -13 17 -38 206 -20 158 -23 168 -60 226
-22 33 -39 66 -39 72 0 13 30 17 30 5 0 -5 9 -19 19 -32 18 -23 18 -23 10 35
-5 33 -13 83 -17 111 -5 29 -7 55 -4 58 8 8 20 6 26 -4z m-810 -393 c3 -13 6
-41 6 -62 0 -101 57 -249 148 -386 58 -88 217 -261 278 -302 31 -21 47 -58 25
-58 -19 0 -144 114 -226 207 -161 180 -247 360 -262 546 -5 65 -4 77 9 77 9 0
18 -10 22 -22z"/>
<path d="M983 4110 c-7 -20 -22 -34 -42 -41 -40 -14 -39 -31 4 -52 21 -10 37
-26 41 -42 8 -34 33 -32 45 4 6 17 22 34 40 41 37 16 37 34 0 50 -18 7 -34 24
-40 41 -13 38 -34 37 -48 -1z"/>
<path d="M6388 3893 c-7 -15 -26 -34 -41 -41 -35 -17 -34 -35 3 -49 20 -7 34
-22 41 -42 14 -39 31 -39 46 0 8 19 23 34 42 42 38 14 40 34 6 47 -14 5 -34
23 -43 40 -21 37 -37 38 -54 3z"/>
<path d="M2505 3773 c4 -38 11 -86 15 -108 l8 -40 1 40 c2 59 20 120 33 107 5
-5 16 -62 23 -125 11 -105 15 -120 51 -178 31 -52 39 -75 42 -126 5 -70 19
-80 62 -45 l22 18 -53 248 c-29 137 -59 255 -67 262 -8 9 -37 14 -79 14 l-65
0 7 -67z"/>
<path d="M5474 3676 c-17 -13 -19 -29 -22 -138 -5 -172 -9 -167 171 -169 183
-1 177 -7 177 158 0 167 4 163 -173 163 -99 0 -138 -4 -153 -14z m124 -92 c12
-8 22 -11 22 -5 0 19 41 23 65 7 30 -20 32 -45 5 -78 -10 -14 -16 -29 -12 -33
4 -5 2 -5 -4 -2 -6 4 -20 0 -30 -8 -29 -22 -39 -19 -84 23 -42 41 -50 71 -24
96 19 20 34 20 62 0z"/>
<path d="M710 2795 c1 -212 -2 -390 -5 -395 -4 -7 190 -10 549 -10 l556 0 0
395 0 395 -550 0 -550 0 0 -385z m469 274 c21 -36 25 -39 40 -26 40 35 118 45
196 26 49 -12 140 -91 129 -112 -3 -6 5 1 18 16 l24 29 13 -26 c8 -14 19 -23
24 -19 6 3 7 1 4 -5 -10 -15 3 -43 16 -35 5 3 7 2 4 -4 -3 -5 9 -35 28 -66
l34 -56 -47 -38 c-26 -21 -55 -44 -64 -52 -15 -11 -25 -7 -77 33 -33 25 -62
46 -65 46 -3 0 -15 -18 -28 -39 l-24 -40 -53 85 c-29 46 -55 84 -58 84 -2 0
-36 -24 -75 -54 l-71 -54 -74 55 c-40 31 -73 58 -73 60 0 3 21 39 47 80 25 41
46 81 46 89 0 7 3 11 7 9 3 -2 14 9 24 26 9 16 21 29 25 29 4 0 18 -18 30 -41z"/>
<path d="M5930 2304 c0 -17 -6 -28 -20 -31 -24 -6 -28 -58 -5 -67 10 -3 15
-19 15 -44 0 -22 3 -54 6 -71 l7 -31 164 0 c163 0 164 0 158 21 -5 15 -4 19 4
15 8 -5 11 10 11 49 0 40 4 57 15 61 23 9 19 61 -5 67 -14 3 -20 14 -20 31 l0
26 -165 0 -165 0 0 -26z"/>
<path d="M5475 2175 c-24 -23 -25 -30 -25 -144 0 -117 1 -120 26 -140 24 -19
40 -21 155 -21 172 0 169 -3 169 165 0 169 4 165 -170 165 -126 0 -132 -1
-155 -25z m215 -51 c22 -25 15 -69 -16 -111 -52 -73 -108 -99 -149 -69 -18 13
-18 14 1 39 14 20 27 26 48 24 38 -3 77 43 56 67 -10 13 -9 20 4 41 19 29 38
32 56 9z"/>
</g>
</svg>
